<svg version="1.1" xmlns="http://www.w3.org/2000/svg" viewBox="0 0 577.6959960635741 203.8927887600123" width="577.6959960635741" height="203.8927887600123">
  <!-- svg-source:excalidraw -->
  
  <defs>
    <style class="style-fonts">
      @font-face {
        font-family: "Virgil";
        src: url("https://excalidraw.com/Virgil.woff2");
      }
      @font-face {
        font-family: "Cascadia";
        src: url("https://excalidraw.com/Cascadia.woff2");
      }
    </style>
    
  </defs>
  <rect x="0" y="0" width="577.6959960635741" height="203.8927887600123" fill="#ffffff"></rect><g stroke-linecap="round" transform="translate(10 11.758492561662024) rotate(0 75.5 47.5)"><path d="M0 0 C50.55 0, 101.1 0, 151 0 M0 0 C35.06 0, 70.13 0, 151 0 M151 0 C151 29.46, 151 58.91, 151 95 M151 0 C151 37.66, 151 75.32, 151 95 M151 95 C111.06 95, 71.12 95, 0 95 M151 95 C92.88 95, 34.76 95, 0 95 M0 95 C0 57.1, 0 19.21, 0 0 M0 95 C0 66.82, 0 38.64, 0 0" stroke="#1e1e1e" stroke-width="2" fill="none"></path></g><g transform="translate(20.4609375 36.258492561662024) rotate(0 65.0390625 23)"><text x="65.0390625" y="0" font-family="Helvetica, Segoe UI Emoji" font-size="20px" fill="#1e1e1e" text-anchor="middle" style="white-space: pre;" direction="ltr" dominant-baseline="text-before-edge">Previous Page</text><text x="65.0390625" y="23" font-family="Helvetica, Segoe UI Emoji" font-size="20px" fill="#1e1e1e" text-anchor="middle" style="white-space: pre;" direction="ltr" dominant-baseline="text-before-edge">(Any Page)</text></g><g stroke-linecap="round" transform="translate(212.97286626631285 11.90499794503421) rotate(0 75.5 47.5)"><path d="M0 0 C38.21 0, 76.41 0, 151 0 M0 0 C58.89 0, 117.78 0, 151 0 M151 0 C151 30.26, 151 60.53, 151 95 M151 0 C151 32.06, 151 64.12, 151 95 M151 95 C118.77 95, 86.54 95, 0 95 M151 95 C91.57 95, 32.15 95, 0 95 M0 95 C0 57.08, 0 19.16, 0 0 M0 95 C0 60.61, 0 26.21, 0 0" stroke="#1e1e1e" stroke-width="2" fill="none"></path></g><g transform="translate(230.65548345381285 47.90499794503421) rotate(0 57.8173828125 11.5)"><text x="57.8173828125" y="0" font-family="Helvetica, Segoe UI Emoji" font-size="20px" fill="#1e1e1e" text-anchor="middle" style="white-space: pre;" direction="ltr" dominant-baseline="text-before-edge">Search Page</text></g><g stroke-linecap="round" transform="translate(416.69599606357406 10) rotate(0 75.5 47.5)"><path d="M0 0 C44.49 0, 88.97 0, 151 0 M0 0 C33.04 0, 66.09 0, 151 0 M151 0 C151 26.09, 151 52.19, 151 95 M151 0 C151 28.29, 151 56.58, 151 95 M151 95 C103.08 95, 55.16 95, 0 95 M151 95 C108.68 95, 66.37 95, 0 95 M0 95 C0 70.53, 0 46.06, 0 0 M0 95 C0 60.58, 0 26.16, 0 0" stroke="#1e1e1e" stroke-width="2" fill="none"></path></g><g transform="translate(442.17158200107406 34.5) rotate(0 50.0244140625 23)"><text x="50.0244140625" y="0" font-family="Helvetica, Segoe UI Emoji" font-size="20px" fill="#1e1e1e" text-anchor="middle" style="white-space: pre;" direction="ltr" dominant-baseline="text-before-edge">Next Page</text><text x="50.0244140625" y="23" font-family="Helvetica, Segoe UI Emoji" font-size="20px" fill="#1e1e1e" text-anchor="middle" style="white-space: pre;" direction="ltr" dominant-baseline="text-before-edge">(Any Page)</text></g><g stroke-linecap="round"><g transform="translate(161.82269511387585 58.506564737169356) rotate(0 22.657264386394445 0.2294823044964005)"><path d="M0 0 C16.46 0.17, 32.91 0.33, 45.31 0.46 M0 0 C15.57 0.16, 31.14 0.32, 45.31 0.46" stroke="#1e1e1e" stroke-width="2" fill="none"></path></g><g transform="translate(161.82269511387585 58.506564737169356) rotate(0 22.657264386394445 0.2294823044964005)"><path d="M0 0 L13.66 -6.2 L13.53 6.48 L0 0" stroke="none" stroke-width="0" fill="#1e1e1e" fill-rule="evenodd"></path><path d="M0 0 C4.96 -2.25, 9.92 -4.5, 13.66 -6.2 M0 0 C4.69 -2.13, 9.39 -4.26, 13.66 -6.2 M13.66 -6.2 C13.62 -2.48, 13.58 1.24, 13.53 6.48 M13.66 -6.2 C13.63 -2.99, 13.59 0.22, 13.53 6.48 M13.53 6.48 C8.41 4.03, 3.29 1.58, 0 0 M13.53 6.48 C9.52 4.56, 5.51 2.64, 0 0 M0 0 C0 0, 0 0, 0 0 M0 0 C0 0, 0 0, 0 0" stroke="#1e1e1e" stroke-width="2" fill="none"></path></g></g><mask></mask><g stroke-linecap="round"><g transform="translate(368.11787170977004 58.655780541460445) rotate(0 21.7911660245843 -0.17736614085595193)"><path d="M0 0 C10.94 -0.09, 21.89 -0.18, 43.58 -0.35 M0 0 C16.02 -0.13, 32.05 -0.26, 43.58 -0.35" stroke="#1e1e1e" stroke-width="2" fill="none"></path></g><g transform="translate(368.11787170977004 58.655780541460445) rotate(0 21.7911660245843 -0.17736614085595193)"><path d="M0 0 L13.54 -6.45 L13.65 6.23 L0 0" stroke="none" stroke-width="0" fill="#1e1e1e" fill-rule="evenodd"></path><path d="M0 0 C3.4 -1.62, 6.8 -3.24, 13.54 -6.45 M0 0 C4.98 -2.37, 9.96 -4.74, 13.54 -6.45 M13.54 -6.45 C13.57 -3.28, 13.59 -0.11, 13.65 6.23 M13.54 -6.45 C13.57 -3.35, 13.59 -0.26, 13.65 6.23 M13.65 6.23 C8.26 3.77, 2.88 1.32, 0 0 M13.65 6.23 C8.74 3.99, 3.83 1.75, 0 0 M0 0 C0 0, 0 0, 0 0 M0 0 C0 0, 0 0, 0 0" stroke="#1e1e1e" stroke-width="2" fill="none"></path></g></g><mask></mask><g stroke-linecap="round" transform="translate(152.3999189119072 150.08785011008354) rotate(0 138.1072371324144 21.902469324964386)"><path d="M-0.4 -1 C96.51 0.3, 189.1 0.11, 275.65 -0.72 M-0.3 0.19 C64.64 0.59, 128.34 0.56, 276.55 -0.11 M276.84 0.69 C276.19 12.07, 275.44 26.24, 277.57 44.23 M275.94 0.38 C277.06 16.35, 275.7 32.6, 275.87 44.77 M277.59 44.19 C193.14 40.5, 112.26 42.24, 0.37 44.77 M276.23 44.21 C198.11 43.95, 120.7 44.22, 0.35 44.01 M-1.73 41.89 C-1.23 28.04, 1.81 8.86, 1.7 -0.13 M0.86 42.83 C0.29 32.73, -0.62 22.39, -0.41 -0.09" stroke="#000000" stroke-width="2" fill="none"></path></g><g stroke-linecap="round" transform="translate(162.10262679823109 158.3022865515204) rotate(0 7.858672846528407 8.215885248643417)"><path d="M10.1 1.25 C11.53 1.34, 12.71 1.45, 13.49 2.56 C14.28 3.67, 14.96 5.86, 14.83 7.91 C14.69 9.95, 13.59 13.41, 12.68 14.82 C11.76 16.23, 10.75 16.36, 9.34 16.37 C7.94 16.39, 5.84 15.95, 4.25 14.92 C2.66 13.89, 0.49 11.75, -0.18 10.2 C-0.86 8.66, -0.42 7.2, 0.19 5.66 C0.81 4.13, 1.76 1.97, 3.5 1 C5.24 0.02, 9.2 -0.12, 10.63 -0.19 C12.05 -0.25, 12.12 0.5, 12.05 0.6 M4.5 -0.44 C6.08 -1.04, 9.86 0.01, 11.46 0.96 C13.05 1.91, 13.52 3.95, 14.04 5.27 C14.56 6.59, 14.81 7.11, 14.57 8.88 C14.33 10.65, 13.78 14.84, 12.59 15.87 C11.4 16.91, 9.28 15.14, 7.42 15.07 C5.56 14.99, 2.45 16.22, 1.45 15.44 C0.45 14.65, 1.63 12.51, 1.42 10.37 C1.21 8.23, -0.51 4.34, 0.18 2.59 C0.87 0.85, 4.57 0.27, 5.56 -0.09 C6.55 -0.45, 5.89 0.35, 6.13 0.44" stroke="none" stroke-width="0" fill="#fff"></path><path d="M10.21 0.04 C11.74 0.28, 13.14 1.75, 14.01 3.29 C14.88 4.83, 15.57 7.36, 15.43 9.28 C15.28 11.21, 14.35 13.74, 13.14 14.82 C11.92 15.91, 9.82 15.79, 8.14 15.81 C6.46 15.83, 4.42 15.96, 3.06 14.92 C1.7 13.89, 0.28 11.39, -0.03 9.61 C-0.35 7.84, 0.24 5.75, 1.17 4.29 C2.09 2.83, 3.75 1.45, 5.52 0.83 C7.28 0.21, 10.62 0.37, 11.77 0.57 C12.92 0.76, 12.35 1.77, 12.4 2.01 M9.82 0.96 C11.55 1.35, 14.86 2.97, 15.69 4.59 C16.52 6.21, 15.31 8.84, 14.8 10.69 C14.29 12.55, 13.74 14.7, 12.64 15.73 C11.53 16.77, 10 16.85, 8.17 16.91 C6.34 16.96, 2.94 17.29, 1.68 16.06 C0.41 14.83, 0.9 11.27, 0.56 9.53 C0.21 7.79, -1.18 7.06, -0.39 5.63 C0.39 4.21, 3.34 1.9, 5.27 0.98 C7.19 0.06, 10.28 0.15, 11.18 0.12 C12.07 0.09, 10.83 0.48, 10.63 0.79" stroke="#000000" stroke-width="2" fill="none"></path></g><g stroke-linecap="round"><g transform="translate(175.26600018492582 171.6710088850516) rotate(0 5.265252709176821 5.767881292902757)"><path d="M0.85 -0.76 C2.76 0.88, 9.26 9.09, 10.7 10.99 M-0.17 1.45 C1.72 3.77, 8.69 10.62, 10.11 12.3" stroke="#000000" stroke-width="2" fill="none"></path></g></g><mask></mask><g transform="translate(206.40985368156726 157.8818652057039) rotate(0 44.453468322753906 14.221418708853435)"><text x="0" y="0" font-family="Virgil, Segoe UI Emoji" font-size="22.754269934165507px" fill="#343a40" text-anchor="start" style="white-space: pre;" direction="ltr" dominant-baseline="text-before-edge">sweater</text></g><g stroke-linecap="round"><g transform="translate(293.3090655574074 117.77619490077382) rotate(0 0.43438061574261155 11.929465939252623)"><path d="M0 0 C0.23 6.45, 0.47 12.89, 0.87 23.86" stroke="#1e1e1e" stroke-width="2.5" fill="none" stroke-dasharray="1.5 8"></path></g></g><mask></mask></svg>