<svg version="1.1" xmlns="http://www.w3.org/2000/svg" viewBox="0 0 577.6959960635745 197.75910621975368" width="577.6959960635745" height="197.75910621975368">
  <!-- svg-source:excalidraw -->
  
  <defs>
    <style class="style-fonts">
      @font-face {
        font-family: "Virgil";
        src: url("https://excalidraw.com/Virgil.woff2");
      }
      @font-face {
        font-family: "Cascadia";
        src: url("https://excalidraw.com/Cascadia.woff2");
      }
    </style>
    
  </defs>
  <rect x="0" y="0" width="577.6959960635745" height="197.75910621975368" fill="#ffffff"></rect><g stroke-linecap="round" transform="translate(10 11.758492561662024) rotate(0 75.5 47.5)"><path d="M0 0 C42.7 0, 85.39 0, 151 0 M0 0 C37.75 0, 75.49 0, 151 0 M151 0 C151 34.92, 151 69.84, 151 95 M151 0 C151 22.1, 151 44.21, 151 95 M151 95 C108.92 95, 66.83 95, 0 95 M151 95 C118.61 95, 86.22 95, 0 95 M0 95 C0 64.12, 0 33.23, 0 0 M0 95 C0 57.44, 0 19.88, 0 0" stroke="#1e1e1e" stroke-width="2" fill="none"></path></g><g transform="translate(20.4609375 36.258492561662024) rotate(0 65.0390625 23)"><text x="65.0390625" y="0" font-family="Helvetica, Segoe UI Emoji" font-size="20px" fill="#1e1e1e" text-anchor="middle" style="white-space: pre;" direction="ltr" dominant-baseline="text-before-edge">Previous Page</text><text x="65.0390625" y="23" font-family="Helvetica, Segoe UI Emoji" font-size="20px" fill="#1e1e1e" text-anchor="middle" style="white-space: pre;" direction="ltr" dominant-baseline="text-before-edge">(Any Page)</text></g><g stroke-linecap="round" transform="translate(212.97286626631376 11.904997945034438) rotate(0 75.5 47.5)"><path d="M0 0 C45.21 0, 90.42 0, 151 0 M0 0 C33.48 0, 66.95 0, 151 0 M151 0 C151 25.64, 151 51.28, 151 95 M151 0 C151 20.44, 151 40.88, 151 95 M151 95 C101.57 95, 52.14 95, 0 95 M151 95 C104.18 95, 57.36 95, 0 95 M0 95 C0 73.07, 0 51.15, 0 0 M0 95 C0 62.62, 0 30.23, 0 0" stroke="#1e1e1e" stroke-width="2" fill="none"></path></g><g transform="translate(230.65548345381376 47.90499794503444) rotate(0 57.8173828125 11.5)"><text x="57.8173828125" y="0" font-family="Helvetica, Segoe UI Emoji" font-size="20px" fill="#1e1e1e" text-anchor="middle" style="white-space: pre;" direction="ltr" dominant-baseline="text-before-edge">Search Page</text></g><g stroke-linecap="round" transform="translate(416.6959960635745 10) rotate(0 75.5 47.5)"><path d="M0 0 C30.29 0, 60.57 0, 151 0 M0 0 C39.33 0, 78.66 0, 151 0 M151 0 C151 21.26, 151 42.51, 151 95 M151 0 C151 27.27, 151 54.54, 151 95 M151 95 C93.97 95, 36.94 95, 0 95 M151 95 C101.02 95, 51.03 95, 0 95 M0 95 C0 69.28, 0 43.57, 0 0 M0 95 C0 62.69, 0 30.38, 0 0" stroke="#1e1e1e" stroke-width="2" fill="none"></path></g><g transform="translate(442.1715820010745 34.5) rotate(0 50.0244140625 23)"><text x="50.0244140625" y="0" font-family="Helvetica, Segoe UI Emoji" font-size="20px" fill="#1e1e1e" text-anchor="middle" style="white-space: pre;" direction="ltr" dominant-baseline="text-before-edge">Next Page</text><text x="50.0244140625" y="23" font-family="Helvetica, Segoe UI Emoji" font-size="20px" fill="#1e1e1e" text-anchor="middle" style="white-space: pre;" direction="ltr" dominant-baseline="text-before-edge">(Any Page)</text></g><g stroke-linecap="round"><g transform="translate(161.8226951138763 58.506564737169356) rotate(0 22.657264386394445 0.2294823044964005)"><path d="M0 0 C13.38 0.14, 26.76 0.27, 45.31 0.46 M0 0 C14.73 0.15, 29.45 0.3, 45.31 0.46" stroke="#1e1e1e" stroke-width="2" fill="none"></path></g><g transform="translate(161.8226951138763 58.506564737169356) rotate(0 22.657264386394445 0.2294823044964005)"><path d="M45.31 0.46 L31.66 6.66 L31.78 -6.02 L45.31 0.46" stroke="none" stroke-width="0" fill="#1e1e1e" fill-rule="evenodd"></path><path d="M45.31 0.46 C41.28 2.29, 37.25 4.12, 31.66 6.66 M45.31 0.46 C40.88 2.47, 36.44 4.49, 31.66 6.66 M31.66 6.66 C31.69 3.72, 31.72 0.78, 31.78 -6.02 M31.66 6.66 C31.7 2.63, 31.74 -1.39, 31.78 -6.02 M31.78 -6.02 C36.28 -3.87, 40.77 -1.72, 45.31 0.46 M31.78 -6.02 C36.36 -3.83, 40.93 -1.64, 45.31 0.46 M45.31 0.46 C45.31 0.46, 45.31 0.46, 45.31 0.46 M45.31 0.46 C45.31 0.46, 45.31 0.46, 45.31 0.46" stroke="#1e1e1e" stroke-width="2" fill="none"></path></g></g><mask></mask><g stroke-linecap="round"><g transform="translate(368.11787170977004 58.65578054146067) rotate(0 21.7911660245843 -0.17736614085595193)"><path d="M0 0 C12.94 -0.11, 25.89 -0.21, 43.58 -0.35 M0 0 C10.06 -0.08, 20.12 -0.16, 43.58 -0.35" stroke="#1e1e1e" stroke-width="2" fill="none"></path></g><g transform="translate(368.11787170977004 58.65578054146067) rotate(0 21.7911660245843 -0.17736614085595193)"><path d="M43.58 -0.35 L30.04 6.09 L29.94 -6.58 L43.58 -0.35" stroke="none" stroke-width="0" fill="#1e1e1e" fill-rule="evenodd"></path><path d="M43.58 -0.35 C39.56 1.56, 35.54 3.48, 30.04 6.09 M43.58 -0.35 C40.46 1.13, 37.33 2.62, 30.04 6.09 M30.04 6.09 C30.01 2.71, 29.98 -0.68, 29.94 -6.58 M30.04 6.09 C30.01 2.04, 29.97 -2.01, 29.94 -6.58 M29.94 -6.58 C35.24 -4.16, 40.55 -1.74, 43.58 -0.35 M29.94 -6.58 C32.93 -5.22, 35.93 -3.85, 43.58 -0.35 M43.58 -0.35 C43.58 -0.35, 43.58 -0.35, 43.58 -0.35 M43.58 -0.35 C43.58 -0.35, 43.58 -0.35, 43.58 -0.35" stroke="#1e1e1e" stroke-width="2" fill="none"></path></g></g><mask></mask><g stroke-linecap="round" transform="translate(158.43783324635297 143.9541675698249) rotate(0 138.10723713241464 21.902469324964386)"><path d="M-1.53 0.45 C105.1 0.4, 212.62 2.47, 274.81 -0.52 M0.43 0.4 C58.12 -0.35, 116.33 0.23, 276.83 0.17 M275.28 -1.75 C275.93 15.17, 275.51 32.72, 274.32 44.05 M276.64 0.71 C276.87 17.25, 276.55 32, 276.33 43.76 M276.01 43.21 C184.76 45.08, 90.48 43.6, -0.43 42.56 M275.7 43.98 C167.15 44.48, 56.57 45.39, -0.04 43.94 M0.62 42.22 C0.17 31.96, -1.6 17.29, -1.77 -0.38 M0.32 44.16 C0.6 31.9, 0.26 20.39, 0.06 -0.07" stroke="#000000" stroke-width="2" fill="none"></path></g><g stroke-linecap="round" transform="translate(168.14054113267684 152.16860401126178) rotate(0 7.858672846528407 8.215885248643417)"><path d="M4.64 0.72 C5.98 -0.12, 8.32 -0.26, 9.97 0.06 C11.62 0.38, 13.59 1.1, 14.56 2.64 C15.54 4.18, 16.12 7.5, 15.81 9.3 C15.5 11.11, 14.05 12.31, 12.7 13.46 C11.36 14.61, 9.35 16.06, 7.74 16.2 C6.13 16.35, 4.18 15.23, 3.03 14.32 C1.89 13.41, 1.18 12.27, 0.85 10.74 C0.52 9.2, 0.43 6.82, 1.05 5.12 C1.68 3.41, 3.92 1.27, 4.61 0.51 C5.31 -0.26, 5.11 0.53, 5.22 0.55 M6.22 -0.36 C8.08 -0.85, 10.64 -0.74, 12.07 -0.04 C13.5 0.67, 14.16 1.94, 14.78 3.86 C15.4 5.78, 16.13 9.55, 15.78 11.47 C15.42 13.39, 14.17 14.59, 12.64 15.4 C11.1 16.21, 8.41 16.74, 6.58 16.33 C4.76 15.92, 2.94 13.88, 1.71 12.93 C0.48 11.97, -0.87 12.11, -0.8 10.6 C-0.74 9.1, 1.27 5.37, 2.1 3.91 C2.92 2.44, 3.57 2.42, 4.16 1.81 C4.75 1.2, 5.31 0.19, 5.65 0.26" stroke="none" stroke-width="0" fill="#fff"></path><path d="M3.7 0.4 C4.97 -0.37, 7.3 0.26, 9.07 0.88 C10.83 1.5, 13.09 2.72, 14.27 4.13 C15.46 5.53, 16.46 7.51, 16.2 9.28 C15.94 11.05, 13.99 13.42, 12.72 14.74 C11.45 16.06, 10.12 17.04, 8.58 17.21 C7.04 17.38, 4.82 16.93, 3.5 15.76 C2.19 14.6, 1.22 12.23, 0.69 10.23 C0.16 8.24, -0.38 5.56, 0.3 3.79 C0.99 2.03, 4.01 0.3, 4.8 -0.34 C5.6 -0.97, 5.15 -0.33, 5.08 -0.03 M11.29 1.6 C12.7 2.08, 14.48 4.4, 15.19 5.6 C15.91 6.79, 15.93 7.28, 15.57 8.77 C15.2 10.26, 14.2 13.33, 12.99 14.52 C11.78 15.72, 9.91 15.99, 8.29 15.95 C6.67 15.9, 4.74 15.06, 3.28 14.23 C1.81 13.41, -0.2 12.67, -0.48 11 C-0.77 9.33, 0.78 6.04, 1.58 4.21 C2.38 2.39, 3 0.41, 4.31 0.04 C5.62 -0.33, 8.46 1.74, 9.45 1.98 C10.43 2.23, 10.24 1.58, 10.23 1.52" stroke="#000000" stroke-width="2" fill="none"></path></g><g stroke-linecap="round"><g transform="translate(181.30391451937157 165.53732634479297) rotate(0 4.781351944834341 5.109831799321682)"><path d="M-1.02 -0.03 C0.68 1.86, 8.81 8.61, 10.59 10.34 M0.64 -1.09 C2.21 0.99, 8.61 9.28, 9.94 11.31" stroke="#000000" stroke-width="2" fill="none"></path></g></g><mask></mask><g stroke-linecap="round"><g transform="translate(288.6997176669988 113.78227079815088) rotate(0 -0.32849997784569496 17.09196186802569)"><path d="M0 0 C-0.2 10.63, -0.41 21.26, -0.66 34.18" stroke="#1e1e1e" stroke-width="2.5" fill="none" stroke-dasharray="1.5 8"></path></g></g><mask></mask></svg>